<svg xmlns="http://www.w3.org/2000/svg" height="24" viewBox="0 0 24 24" width="24"><path d="M12 8a4 4 0 110 8 4 4 0 010-8zm0 2a2 2 0 100 4 2 2 0 000-4zM5 13.5v-3l2.1-.35a5.7 5.7 0 01.55-1.32L6.4 7.1l2.1-2.1 1.73 1.25c.42-.23.86-.41 1.32-.55L11.9 3h3l.35 2.7c.46.14.9.32 1.32.55L18.3 5l2.1 2.1-1.25 1.73c.23.42.41.86.55 1.32l2.3.35v3l-2.3.35c-.14.46-.32.9-.55 1.32l1.25 1.73-2.1 2.1-1.73-1.25c-.42.23-.86.41-1.32.55l-.35 2.7h-3l-.35-2.7a5.7 5.7 0 01-1.32-.55L8.5 19l-2.1-2.1 1.25-1.73a5.7 5.7 0 01-.55-1.32z" fill="#B78CFF"/></svg>
