<svg xmlns="http://www.w3.org/2000/svg" width="24" height="24" viewBox="0 0 24 24">
  <path d="M4 2h11l5 5v15H4z" fill="#24191B"/>
  <path d="M15 2v5h5z" fill="#FF8A3D"/>
  <path d="M6 8h12v9H6z" fill="#3A2220"/>
  <path d="M8.2 12.7c1.2-1.8 2.7-2.8 4.6-2.8 2.1 0 3.7 1.3 3.7 3s-1.6 3-3.7 3c-1.7 0-3-.7-4-2.1l1.1-.8c.7 1 1.6 1.5 2.8 1.5 1.2 0 2.1-.7 2.1-1.6s-.9-1.6-2.1-1.6c-1.3 0-2.3.7-3.2 2z" fill="#FFD0A8"/>
  <circle cx="12.8" cy="12.9" r="1" fill="#FF8A3D"/>
  <path d="M7 20h6.5" stroke="#FFD0A8" stroke-width="1.4"/>
</svg>
