<svg xmlns="http://www.w3.org/2000/svg" width="24" height="24" viewBox="0 0 24 24">
  <path d="M4 2h11l5 5v15H4z" fill="#17202A"/>
  <path d="M15 2v5h5z" fill="#5AB7FF"/>
  <path d="M6 8h12v9H6z" fill="#1F3040"/>
  <circle cx="12" cy="12.5" r="3.7" fill="#0E1720"/>
  <path d="M9.6 12.5a2.4 2.4 0 0 1 3.8-1.9 4.4 4.4 0 0 0-1.9 4.1 2.4 2.4 0 0 1-1.9-2.2z" fill="#5AB7FF"/>
  <path d="M12.2 15.8a4.3 4.3 0 0 1 2.8-4.2 3.8 3.8 0 0 1-2.8 4.2z" fill="#CDEBFF"/>
  <path d="M7 20h5.5" stroke="#CDEBFF" stroke-width="1.4"/>
</svg>
