<svg xmlns="http://www.w3.org/2000/svg" width="24" height="24" viewBox="0 0 24 24">
  <path d="M4 2h11l5 5v15H4z" fill="#18212B"/>
  <path d="M15 2v5h5z" fill="#31A8FF"/>
  <path d="M6 7.5h12v10H6z" fill="#1D2D44"/>
  <path d="M8 9h8v7H8z" fill="#0D1420"/>
  <path d="M9 10h4.2v1.2H10.4v1.1h2.4v1.2h-2.4V16H9z" fill="#31A8FF"/>
  <path d="M13.5 14.8c.5.3 1.1.4 1.7.4.5 0 .8-.1.8-.4s-.3-.4-.9-.6c-1-.3-1.6-.8-1.6-1.7 0-1 .8-1.7 2.2-1.7.7 0 1.2.1 1.6.3l-.3 1.1c-.3-.1-.7-.3-1.2-.3s-.8.2-.8.4c0 .3.3.4 1 .6 1.1.4 1.6.9 1.6 1.7 0 1-.8 1.8-2.3 1.8-.7 0-1.4-.2-1.8-.4z" fill="#B9E7FF"/>
  <path d="M7 20h5" stroke="#B9E7FF" stroke-width="1.4"/>
</svg>
