<svg xmlns="http://www.w3.org/2000/svg" width="24" height="24" viewBox="0 0 24 24">
  <path d="M4 2h11l5 5v15H4z" fill="#18212B"/>
  <path d="M15 2v5h5z" fill="#5EC8FF"/>
  <path d="M6 7.5h12v10H6z" fill="#263646"/>
  <path d="M8 9h8v7H8z" fill="#0F141A"/>
  <path d="M8 9h2v2H8zm4 0h2v2h-2zm2 2h2v2h-2zm-4 2h2v2h-2zm-2 2h2v1H8zm4 0h4v1h-4z" fill="#EAF8FF" opacity=".8"/>
  <path d="m8 16 3-3 1.8 1.7 1.4-1.5L16 16z" fill="#45D483"/>
  <path d="M7 20h5.4" stroke="#B9E7FF" stroke-width="1.4"/>
</svg>
